<svg width="41" height="29" viewBox="0 0 41 29" fill="none" xmlns="http://www.w3.org/2000/svg">
<path d="M37.5996 18.2665V17.896V8.1613V7.7788L37.9688 7.67872L38.416 7.55748C39.2209 7.33923 39.6451 7.06154 39.8656 6.82442C40.0762 6.59797 40.1271 6.38121 40.1271 6.20446L37.5996 18.2665ZM37.5996 18.2665L37.9541 18.3744M37.5996 18.2665L37.9541 18.3744M37.9541 18.3744C39.2461 18.7674 40.1272 19.8514 40.1271 21.071V25.6385C40.1271 27.1631 38.7367 28.4884 36.9196 28.4884C35.1025 28.4884 33.7121 27.163 33.7121 25.6385V21.071C33.7121 19.8514 34.5933 18.7675 35.8853 18.3744L36.2397 18.2665V17.896V8.80103V8.14744L35.6089 8.31844L32.9134 9.04914L32.5442 9.14921V9.53172V17.5683C32.5442 17.9321 32.4193 18.4062 31.9048 18.919C31.3773 19.4446 30.4281 20.0215 28.7618 20.5234C26.5558 21.1877 23.6182 21.5602 20.4901 21.5602C17.3619 21.5602 14.4243 21.1877 12.2183 20.5234C10.5521 20.0215 9.60287 19.4447 9.07541 18.919C8.56091 18.4062 8.43597 17.9321 8.43597 17.5683V9.53165V9.14914L8.06678 9.04906L2.56427 7.55754C2.56426 7.55754 2.56425 7.55754 2.56425 7.55754C1.75933 7.33932 1.33507 7.06163 1.11455 6.82451C0.903917 6.59803 0.853027 6.38123 0.853027 6.20447C0.853027 6.02769 0.903927 5.8109 1.11456 5.58444C1.33509 5.34735 1.75937 5.0697 2.56431 4.85155L2.56433 4.85154L17.2769 0.863471C17.2769 0.863468 17.277 0.863465 17.277 0.863462C18.1293 0.632484 19.2707 0.5 20.4902 0.5C21.7098 0.5 22.8512 0.63249 23.7033 0.863462L38.416 4.85154L38.5458 4.37276M37.9541 18.3744L38.5458 4.37276M38.5458 4.37276L38.416 4.85154M38.5458 4.37276L38.416 4.85154M38.416 4.85154C39.2208 5.06969 39.6451 5.34734 39.8656 5.58443M38.416 4.85154L39.8656 5.58443M39.8656 5.58443C40.0762 5.81087 40.1271 6.02764 40.1271 6.2044L39.8656 5.58443ZM23.2869 1.94048L23.156 2.42307L23.2868 1.94048C22.5479 1.74021 21.5289 1.6321 20.4902 1.6321C19.4514 1.6321 18.4324 1.7402 17.6934 1.94055C17.6934 1.94056 17.6934 1.94056 17.6934 1.94056L3.74345 5.72189L1.96313 6.20446L3.74345 6.68705L9.33022 8.20146L9.33023 8.20145L9.33291 8.20219L9.3329 8.20222L9.33982 8.20409L17.6936 10.4685L17.8244 9.98594L17.6936 10.4685C18.4325 10.6688 19.4516 10.7769 20.4903 10.7769C21.5291 10.7769 22.548 10.6688 23.2869 10.4685L23.1561 9.98594L23.2869 10.4685L31.6407 8.20409L31.6407 8.20414L31.6439 8.20321L31.6476 8.20217L31.6503 8.20146L31.6571 8.19956L37.237 6.68705L39.0174 6.20447L37.237 5.72189L23.2869 1.94048ZM10.4266 9.68864L9.79578 9.51765V10.1712V17.5683C9.79578 17.6963 9.83941 17.8021 9.87018 17.8643C9.9062 17.937 9.95362 18.0072 10.0081 18.074C10.1172 18.2078 10.2738 18.3511 10.4866 18.4991C10.9123 18.795 11.5961 19.1327 12.6763 19.458C14.7679 20.0881 17.5434 20.4279 20.4902 20.4279C23.4368 20.4279 26.2123 20.0881 28.3041 19.458C29.3653 19.1384 30.1619 18.7766 30.6354 17.9985C31.0868 17.2568 31.1846 16.2247 31.1846 14.7686V10.1712V9.51765L30.5537 9.68864L23.7034 11.5455C22.8511 11.7765 21.7098 11.909 20.4902 11.909C19.2706 11.909 18.1292 11.7765 17.277 11.5455L10.4266 9.68864ZM36.9197 27.3562C37.89 27.3562 38.7674 26.6326 38.7674 25.6385V21.0709C38.7674 20.0769 37.8902 19.3531 36.9197 19.3531C35.9492 19.3531 35.072 20.0769 35.072 21.0709V25.6385C35.072 26.6326 35.9494 27.3562 36.9197 27.3562Z" fill="black" stroke="black"/>
</svg>
