<svg width="389" height="239" viewBox="0 0 389 239" fill="none" xmlns="http://www.w3.org/2000/svg">
<path d="M386.574 44.902L298.283 31.7961C299.362 40.508 299.323 49.322 298.169 58.0242L386.574 44.902Z" fill="#A435F0" stroke="#A435F0" stroke-width="3" stroke-linecap="round" stroke-linejoin="round"/>
<path d="M89.9521 44.5113C89.9612 39.9925 90.2603 35.4789 90.8475 30.9984L2.44214 44.1206L90.7336 57.2265C90.218 53.0076 89.957 48.7615 89.9521 44.5113Z" fill="#A435F0" stroke="#A435F0" stroke-width="3" stroke-linecap="round" stroke-linejoin="round"/>
<path d="M258.248 127.364L330.03 180.601L276.873 108.966C271.45 115.846 265.194 122.026 258.248 127.364Z" fill="#A435F0" stroke="#A435F0" stroke-width="3" stroke-linecap="round" stroke-linejoin="round"/>
<path d="M111.654 108.25L58.4159 180.031L130.052 126.875C123.172 121.452 116.992 115.196 111.654 108.25Z" fill="#A435F0" stroke="#A435F0" stroke-width="3" stroke-linecap="round" stroke-linejoin="round"/>
<path d="M194.508 149.066C189.989 149.057 185.476 148.757 180.995 148.17L194.117 236.574L207.224 148.284C203.005 148.8 198.758 149.061 194.508 149.066Z" fill="#A435F0" stroke="#A435F0" stroke-width="3" stroke-linecap="round" stroke-linejoin="round"/>
</svg>
