<svg width="32" height="30" viewBox="0 0 32 30" fill="none" xmlns="http://www.w3.org/2000/svg">
<path d="M15.3804 29.042L15.3804 29.042L12.4803 24.7736L12.0667 25.0545L12.4803 24.7735C12.3358 24.5609 12.0933 24.4192 11.8198 24.4192H3.87104C2.32378 24.4192 0.995483 23.0385 0.995483 21.2546V3.66458C0.995483 1.88061 2.32378 0.5 3.87104 0.5H28.5433C30.0905 0.5 31.4188 1.88055 31.4188 3.66452V21.2545C31.4188 23.0385 30.0905 24.4191 28.5433 24.4191H20.6393C20.3688 24.4191 20.1277 24.5581 19.9828 24.7676L17.017 29.0506C16.8115 29.3474 16.5141 29.5 16.2019 29.5H16.196C15.8822 29.4981 15.5844 29.3423 15.3804 29.042ZM29.6746 22.0706L30.2886 22.655L30.503 21.8349C30.5512 21.6504 30.5776 21.4558 30.5776 21.2546V4.13405V3.01058L29.7429 3.76257L20.2266 12.3362L19.8254 12.6977L20.2166 13.0699L29.6746 22.0706ZM29.6482 2.59641L30.138 2.15518L29.5811 1.80251C29.2793 1.6114 28.9241 1.49886 28.5433 1.49886H3.87104C3.49191 1.49886 3.13824 1.61041 2.83733 1.79993L2.27814 2.15213L2.76913 2.59448L14.8952 13.5193C15.6533 14.2022 16.7663 14.2022 17.5243 13.5193L29.6482 2.59641ZM1.91132 21.8349L2.12571 22.655L2.73975 22.0706L12.2003 13.0674L12.5915 12.6952L12.1903 12.3338L2.67137 3.75791L1.83669 3.00593V4.12938V21.2546C1.83669 21.4557 1.86308 21.6504 1.91132 21.8349ZM15.7904 28.0575L16.2 28.6605L16.615 28.0612L19.3333 24.1356C19.6496 23.6789 20.1423 23.4203 20.6393 23.4202C20.6393 23.4202 20.6393 23.4202 20.6393 23.4202H28.4994H29.7501L28.8441 22.558L19.471 13.6381L19.1356 13.3189L18.7916 13.6288L18.0307 14.3144C18.0307 14.3144 18.0307 14.3144 18.0307 14.3144C17.4975 14.7948 16.8508 15.0299 16.2097 15.0299C15.5684 15.0299 14.922 14.7949 14.3887 14.3144L14.3887 14.3144L13.625 13.6264L13.2811 13.3165L12.9457 13.6357L3.57011 22.558L2.66411 23.4202H3.9148H11.8197C12.3226 23.4202 12.8186 23.6834 13.1348 24.149L13.1349 24.1491L15.7904 28.0575Z" fill="black" stroke="black"/>
</svg>
