<svg width="16" height="16" viewBox="0 0 16 16" fill="none" xmlns="http://www.w3.org/2000/svg">
<mask id="mask0_142_5923" style="mask-type:alpha" maskUnits="userSpaceOnUse" x="0" y="0" width="16" height="16">
<rect width="16" height="16" fill="#D9D9D9"/>
</mask>
<g mask="url(#mask0_142_5923)">
<path fill-rule="evenodd" clip-rule="evenodd" d="M1 15.2782V17.8297H14.33V15.2782C14.33 14.7619 14.2084 14.2871 13.9651 13.854C13.7224 13.4215 13.3997 13.0913 12.997 12.8635C12.1361 12.3927 11.2613 12.0394 10.3727 11.8037C9.48399 11.5686 8.58144 11.4511 7.665 11.4511C6.74856 11.4511 5.84601 11.5686 4.95734 11.8037C4.06868 12.0394 3.1939 12.3927 2.333 12.8635C1.93032 13.0913 1.60763 13.4215 1.36491 13.854C1.12164 14.2871 1 14.7619 1 15.2782Z" fill="#4F4F4F"/>
<path d="M7.665 10.5398C6.74856 10.5398 5.96404 10.1829 5.31142 9.46915C4.65881 8.75535 4.3325 7.89728 4.3325 6.89492C4.3325 5.89257 4.65881 5.03449 5.31142 4.3207C5.96404 3.6069 6.74856 3.25 7.665 3.25C8.58144 3.25 9.36596 3.6069 10.0186 4.3207C10.6712 5.03449 10.9975 5.89257 10.9975 6.89492C10.9975 7.89728 10.6712 8.75535 10.0186 9.46915C9.36596 10.1829 8.58144 10.5398 7.665 10.5398Z" fill="#BDBDBD"/>
</g>
</svg>
