<svg width="149" height="49" viewBox="0 0 149 49" fill="none" xmlns="http://www.w3.org/2000/svg">
<path d="M30.4941 12.5874L30.4575 13.7959C31.7759 13.4785 33.0088 13.2466 34.1562 13.1001C35.3281 12.9292 36.4634 12.8438 37.562 12.8438C39.5884 12.8438 41.4316 13.1489 43.0918 13.7593C44.7764 14.3696 46.2168 15.3462 47.4131 16.689C48.6094 18.0317 49.5249 19.7773 50.1597 21.9258C50.7944 24.0498 51.0996 26.6499 51.0752 29.7261L50.9287 43.0928C50.9043 44.0693 51.0386 44.8262 51.3315 45.3633C51.6489 45.9004 52.2349 46.1934 53.0894 46.2422V47.5972C51.5513 47.939 50.2451 48.1953 49.1709 48.3662C48.1211 48.5371 47.3521 48.6226 46.8638 48.6226C45.9604 48.6226 45.2769 48.4028 44.813 47.9634C44.3735 47.4995 44.166 46.6572 44.1904 45.4365L44.3369 32.1431C44.3613 29.8481 44.2637 27.6997 44.0439 25.6978C43.8242 23.6958 43.3604 21.9502 42.6523 20.4609C41.9688 18.9717 40.98 17.7998 39.686 16.9453C38.4165 16.0664 36.7319 15.627 34.6323 15.627C33.9976 15.627 33.3384 15.6514 32.6548 15.7002C31.9712 15.749 31.2388 15.8589 30.4575 16.0298L30.1646 43.0928C30.1401 44.0693 30.2744 44.8262 30.5674 45.3633C30.8848 45.9004 31.4707 46.1934 32.3252 46.2422V47.5972C30.7871 47.939 29.481 48.1953 28.4067 48.3662C27.3569 48.5371 26.5879 48.6226 26.0996 48.6226C25.1963 48.6226 24.5127 48.4028 24.0488 47.9634C23.6094 47.4995 23.4019 46.6572 23.4263 45.4365L23.7559 15.8101C21.0459 16.1519 18.7021 17.0552 16.7246 18.52C14.7471 19.9849 13.0991 21.8037 11.7808 23.9766C10.4868 26.125 9.52246 28.5054 8.8877 31.1177C8.25293 33.7056 7.93555 36.2935 7.93555 38.8813C7.93555 39.6138 7.95996 40.4194 8.00879 41.2983C8.08203 42.1528 8.22852 42.9585 8.44824 43.7153C8.66797 44.4722 8.97314 45.1069 9.36377 45.6196C9.77881 46.1323 10.3281 46.3887 11.0117 46.3887V47.7437C9.37598 48.1099 8.0332 48.3662 6.9834 48.5127C5.93359 48.6836 5.0791 48.769 4.41992 48.769C3.66309 48.769 3.05273 48.4395 2.58887 47.7803C2.14941 47.1211 1.79541 46.3398 1.52686 45.4365C1.28271 44.5088 1.11182 43.5688 1.01416 42.6167C0.940918 41.6646 0.904297 40.8955 0.904297 40.3096C0.904297 35.8662 1.63672 31.9355 3.10156 28.5176C4.56641 25.0996 6.60498 22.2188 9.21729 19.875C11.8296 17.5312 14.9302 15.7368 18.519 14.4917C22.1323 13.2466 26.0752 12.563 30.3477 12.4409L30.4941 12.5874ZM101.942 7.2041L101.759 8.33936C102.174 8.16846 102.687 7.97314 103.297 7.75342C103.907 7.53369 104.53 7.33838 105.165 7.16748C105.799 6.97217 106.397 6.81348 106.959 6.69141C107.545 6.56934 108.009 6.5083 108.351 6.5083C109.742 6.5083 110.926 6.80127 111.903 7.38721C112.879 7.94873 113.673 8.69336 114.283 9.62109C114.918 10.5244 115.37 11.562 115.638 12.7339C115.931 13.8813 116.078 15.041 116.078 16.2129C116.078 18.166 115.821 19.9849 115.309 21.6694C114.796 23.3296 114.027 24.7822 113.001 26.0273C111.976 27.248 110.682 28.2124 109.12 28.9204C107.582 29.6284 105.775 29.9824 103.7 29.9824H103.004C102.906 29.9824 102.809 29.9824 102.711 29.9824C102.613 29.9824 102.503 29.9702 102.381 29.9458C98.8413 30.9224 96.4365 31.4106 95.167 31.4106C93.9951 31.4106 93.1406 31.1909 92.6035 30.7515C92.0908 30.2876 91.8345 29.5063 91.8345 28.4077C91.8345 28.188 91.8345 27.9805 91.8345 27.7852C91.8589 27.5898 91.8955 27.3579 91.9443 27.0894C92.1641 25.6489 92.4082 24.0986 92.6768 22.4385C92.9453 20.7783 93.2017 19.167 93.4458 17.6045C93.7144 16.0176 93.9585 14.5527 94.1782 13.21C94.3979 11.8428 94.5688 10.7319 94.6909 9.87744C93.5923 9.95068 92.5547 10.0605 91.5781 10.207C90.626 10.3291 89.6372 10.4878 88.6118 10.6831C88.1724 11.9526 87.6475 13.3931 87.0371 15.0044C86.4512 16.6157 85.8408 18.2881 85.2061 20.0215C84.5713 21.7305 83.9243 23.4517 83.2651 25.1851C82.6304 26.894 82.0444 28.4932 81.5073 29.9824C81.1411 30.9834 80.7749 31.8135 80.4087 32.4727C80.0425 33.1074 79.6519 33.6079 79.2368 33.9741C78.8462 34.3403 78.4189 34.5967 77.9551 34.7432C77.5156 34.8896 77.0396 34.9629 76.5269 34.9629C75.8921 34.9629 75.2695 34.9507 74.6592 34.9263C74.0732 34.9019 73.4629 34.8896 72.8281 34.8896C72.3398 34.8896 71.8394 34.9141 71.3267 34.9629C70.814 34.9873 70.2158 35.0728 69.5322 35.2192C68.7754 35.3901 68.0918 35.5854 67.4814 35.8052C66.8711 36.0249 66.3096 36.2324 65.7969 36.4277C65.3086 36.5986 64.8447 36.7451 64.4053 36.8672C63.9902 36.9893 63.5874 37.0503 63.1968 37.0503C62.2202 37.0503 61.4023 36.7817 60.7432 36.2446C60.084 35.7075 59.5469 35.0483 59.1318 34.2671C58.7412 33.4614 58.4482 32.6069 58.2529 31.7036C58.082 30.7759 57.9966 29.9214 57.9966 29.1401C57.9966 27.4556 58.2163 25.832 58.6558 24.2695C59.0952 22.707 59.6934 21.2422 60.4502 19.875C61.2314 18.4834 62.1348 17.2261 63.1602 16.103C64.1855 14.98 65.2842 14.0156 66.4561 13.21C68.2871 11.9648 70.3867 11.0371 72.7549 10.4268C75.1475 9.81641 77.894 9.42578 80.9946 9.25488C82.5327 9.18164 84.0586 9.03516 85.5723 8.81543C87.0859 8.5957 88.6606 8.37598 90.2964 8.15625C91.9565 7.91211 93.7144 7.68018 95.5698 7.46045C97.4253 7.24072 99.4883 7.09424 101.759 7.021L101.942 7.2041ZM81.2144 11.5986C79.1636 11.5986 77.3447 11.8672 75.7578 12.4043C74.1953 12.917 72.8281 13.625 71.6562 14.5283C70.4844 15.4072 69.4956 16.4204 68.6899 17.5679C67.8843 18.7153 67.2373 19.8994 66.749 21.1201C66.2607 22.3408 65.9067 23.5737 65.687 24.8188C65.4673 26.0396 65.3574 27.1626 65.3574 28.188C65.3574 29.5796 65.6992 30.7393 66.3828 31.667C67.0664 32.5703 68.0674 33.022 69.3857 33.022C70.5088 33.022 71.5342 32.7412 72.4619 32.1797C73.4141 31.5938 74.1343 30.6416 74.6226 29.3232C75.8188 26.1006 76.9541 23.061 78.0283 20.2046C79.127 17.3481 80.189 14.4795 81.2144 11.5986ZM101.429 10.2437C101.087 12.3188 100.746 14.394 100.404 16.4692C100.062 18.5444 99.7324 20.6929 99.415 22.9146C99.3418 23.4517 99.2686 23.9521 99.1953 24.416C99.1465 24.8555 99.1221 25.2705 99.1221 25.6611C99.1221 26.3936 99.3174 26.9673 99.708 27.3823C100.099 27.7974 100.868 28.0049 102.015 28.0049C103.358 28.0049 104.481 27.6387 105.384 26.9062C106.288 26.1738 107.008 25.2583 107.545 24.1597C108.082 23.061 108.46 21.8647 108.68 20.5708C108.9 19.2524 109.01 18.0195 109.01 16.8721C109.01 15.9199 108.912 15.0288 108.717 14.1987C108.546 13.3687 108.241 12.6484 107.801 12.0381C107.362 11.4033 106.788 10.915 106.08 10.5732C105.372 10.207 104.493 10.0239 103.443 10.0239C102.833 10.0239 102.162 10.0972 101.429 10.2437ZM129.481 15.4072C130.311 15.3096 131.239 15.2119 132.264 15.1143C133.29 14.9922 134.278 14.8945 135.23 14.8213C136.207 14.7236 137.086 14.6504 137.867 14.6016C138.648 14.5283 139.222 14.4917 139.588 14.4917C140.516 14.4917 141.236 14.7603 141.749 15.2974C142.262 15.8345 142.518 16.4937 142.518 17.2749C142.518 17.519 142.481 17.7632 142.408 18.0073C142.335 18.2271 142.25 18.459 142.152 18.7031C141.639 19.7529 141.053 20.9492 140.394 22.292C139.759 23.6104 139.076 25.002 138.343 26.4668C137.635 27.9072 136.915 29.3721 136.183 30.8613C135.45 32.3506 134.742 33.7788 134.059 35.146C135.743 34.8286 137.293 34.5845 138.709 34.4136C140.125 34.2183 141.432 34.1206 142.628 34.1206C144.312 34.1206 145.692 34.5112 146.766 35.2925C147.865 36.0493 148.414 37.2456 148.414 38.8813C148.414 40.3218 148.133 41.6157 147.572 42.7632C147.01 43.8862 146.266 44.8384 145.338 45.6196C144.435 46.3765 143.385 46.9624 142.188 47.3774C140.992 47.7681 139.771 47.9634 138.526 47.9634C137.892 47.9634 137.281 47.9512 136.695 47.9268C136.134 47.9023 135.511 47.8657 134.828 47.8169C134.242 47.939 133.497 48.061 132.594 48.1831C131.69 48.3052 130.763 48.415 129.811 48.5127C128.883 48.6104 128.004 48.6836 127.174 48.7324C126.368 48.8057 125.758 48.8423 125.343 48.8423C124.024 48.8423 123.097 48.5737 122.56 48.0366C122.022 47.5239 121.754 46.877 121.754 46.0957C121.754 45.8027 121.852 45.3267 122.047 44.6675C122.438 43.7397 122.999 42.519 123.731 41.0054C124.464 39.4917 125.282 37.8193 126.185 35.9883C127.088 34.1572 128.041 32.2407 129.042 30.2388C130.067 28.2124 131.056 26.2349 132.008 24.3062C132.301 23.7202 132.545 23.1343 132.74 22.5483C132.96 21.938 133.07 21.3521 133.07 20.7905C133.07 19.9604 132.801 19.2646 132.264 18.7031C131.751 18.1416 130.799 17.8608 129.408 17.8608C128.822 17.8608 128.089 17.8975 127.21 17.9707C126.332 18.0195 125.489 18.0806 124.684 18.1538C123.976 18.2026 123.475 18.1172 123.182 17.8975C122.914 17.6533 122.779 17.2139 122.779 16.5791C122.779 16.2861 122.804 15.8345 122.853 15.2241C122.901 14.6138 122.962 13.9302 123.036 13.1733C123.133 12.4165 123.231 11.6353 123.329 10.8296C123.426 9.99951 123.512 9.23047 123.585 8.52246C123.683 7.79004 123.756 7.15527 123.805 6.61816C123.854 6.05664 123.878 5.67822 123.878 5.48291C123.878 4.04248 122.999 3.26123 121.241 3.13916V1.78418C121.9 1.6377 122.584 1.50342 123.292 1.38135C124 1.25928 124.671 1.14941 125.306 1.05176C125.941 0.954102 126.515 0.880859 127.027 0.832031C127.564 0.783203 127.979 0.758789 128.272 0.758789C129.2 0.758789 129.847 0.941895 130.213 1.30811C130.604 1.67432 130.799 2.26025 130.799 3.06592C130.799 3.48096 130.75 4.16455 130.653 5.1167C130.555 6.06885 130.433 7.13086 130.287 8.30273C130.14 9.47461 129.994 10.6953 129.847 11.9648C129.701 13.21 129.579 14.3574 129.481 15.4072ZM129.774 44.1914C129.701 44.3867 129.664 44.5332 129.664 44.6309C129.664 44.9727 129.847 45.2412 130.213 45.4365C130.604 45.6074 131.068 45.7417 131.605 45.8394C132.142 45.9126 132.691 45.9614 133.253 45.9858C133.839 45.9858 134.315 45.9858 134.681 45.9858C135.633 45.9858 136.524 45.8638 137.354 45.6196C138.209 45.3755 138.941 44.9971 139.552 44.4844C140.187 43.9717 140.675 43.3247 141.017 42.5435C141.383 41.7378 141.566 40.7856 141.566 39.687C141.566 37.6362 140.394 36.6108 138.05 36.6108C137.416 36.6108 136.659 36.6719 135.78 36.7939C134.901 36.8916 133.985 37.0259 133.033 37.1968L129.774 44.1914Z" fill="#A435F0"/>
</svg>
