<svg width="315" height="103" viewBox="0 0 315 103" fill="none" xmlns="http://www.w3.org/2000/svg">
<path d="M63.1875 25.4531L63.1094 28.0312C65.9219 27.3542 68.5521 26.8594 71 26.5469C73.5 26.1823 75.9219 26 78.2656 26C82.5885 26 86.5208 26.651 90.0625 27.9531C93.6562 29.2552 96.7292 31.3385 99.2812 34.2031C101.833 37.0677 103.786 40.7917 105.141 45.375C106.495 49.9062 107.146 55.4531 107.094 62.0156L106.781 90.5312C106.729 92.6146 107.016 94.2292 107.641 95.375C108.318 96.5208 109.568 97.1458 111.391 97.25V100.141C108.109 100.87 105.323 101.417 103.031 101.781C100.792 102.146 99.151 102.328 98.1094 102.328C96.1823 102.328 94.724 101.859 93.7344 100.922C92.7969 99.9323 92.3542 98.1354 92.4062 95.5312L92.7188 67.1719C92.7708 62.276 92.5625 57.6927 92.0938 53.4219C91.625 49.151 90.6354 45.4271 89.125 42.25C87.6667 39.0729 85.5573 36.5729 82.7969 34.75C80.0885 32.875 76.4948 31.9375 72.0156 31.9375C70.6615 31.9375 69.2552 31.9896 67.7969 32.0938C66.3385 32.1979 64.776 32.4323 63.1094 32.7969L62.4844 90.5312C62.4323 92.6146 62.7188 94.2292 63.3438 95.375C64.0208 96.5208 65.2708 97.1458 67.0938 97.25V100.141C63.8125 100.87 61.026 101.417 58.7344 101.781C56.4948 102.146 54.8542 102.328 53.8125 102.328C51.8854 102.328 50.4271 101.859 49.4375 100.922C48.5 99.9323 48.0573 98.1354 48.1094 95.5312L48.8125 32.3281C43.0312 33.0573 38.0312 34.9844 33.8125 38.1094C29.5938 41.2344 26.0781 45.1146 23.2656 49.75C20.5052 54.3333 18.4479 59.4115 17.0938 64.9844C15.7396 70.5052 15.0625 76.026 15.0625 81.5469C15.0625 83.1094 15.1146 84.8281 15.2188 86.7031C15.375 88.526 15.6875 90.2448 16.1562 91.8594C16.625 93.474 17.276 94.8281 18.1094 95.9219C18.9948 97.0156 20.1667 97.5625 21.625 97.5625V100.453C18.1354 101.234 15.2708 101.781 13.0312 102.094C10.7917 102.458 8.96875 102.641 7.5625 102.641C5.94792 102.641 4.64583 101.938 3.65625 100.531C2.71875 99.125 1.96354 97.4583 1.39062 95.5312C0.869792 93.5521 0.505208 91.5469 0.296875 89.5156C0.140625 87.4844 0.0625 85.8438 0.0625 84.5938C0.0625 75.1146 1.625 66.7292 4.75 59.4375C7.875 52.1458 12.224 46 17.7969 41C23.3698 36 29.9844 32.1719 37.6406 29.5156C45.349 26.8594 53.7604 25.401 62.875 25.1406L63.1875 25.4531ZM215.609 13.9688L215.219 16.3906C216.104 16.026 217.198 15.6094 218.5 15.1406C219.802 14.6719 221.13 14.2552 222.484 13.8906C223.839 13.474 225.115 13.1354 226.312 12.875C227.562 12.6146 228.552 12.4844 229.281 12.4844C232.25 12.4844 234.776 13.1094 236.859 14.3594C238.943 15.5573 240.635 17.1458 241.938 19.125C243.292 21.0521 244.255 23.2656 244.828 25.7656C245.453 28.2135 245.766 30.6875 245.766 33.1875C245.766 37.3542 245.219 41.2344 244.125 44.8281C243.031 48.3698 241.391 51.4688 239.203 54.125C237.016 56.7292 234.255 58.7865 230.922 60.2969C227.641 61.8073 223.786 62.5625 219.359 62.5625H217.875C217.667 62.5625 217.458 62.5625 217.25 62.5625C217.042 62.5625 216.807 62.5365 216.547 62.4844C208.995 64.5677 203.865 65.6094 201.156 65.6094C198.656 65.6094 196.833 65.1406 195.688 64.2031C194.594 63.2135 194.047 61.5469 194.047 59.2031C194.047 58.7344 194.047 58.2917 194.047 57.875C194.099 57.4583 194.177 56.9635 194.281 56.3906C194.75 53.3177 195.271 50.0104 195.844 46.4688C196.417 42.9271 196.964 39.4896 197.484 36.1562C198.057 32.7708 198.578 29.6458 199.047 26.7812C199.516 23.8646 199.88 21.4948 200.141 19.6719C197.797 19.8281 195.583 20.0625 193.5 20.375C191.469 20.6354 189.359 20.974 187.172 21.3906C186.234 24.099 185.115 27.1719 183.812 30.6094C182.562 34.0469 181.26 37.6146 179.906 41.3125C178.552 44.9583 177.172 48.6302 175.766 52.3281C174.411 55.974 173.161 59.3854 172.016 62.5625C171.234 64.6979 170.453 66.4688 169.672 67.875C168.891 69.2292 168.057 70.2969 167.172 71.0781C166.339 71.8594 165.427 72.4062 164.438 72.7188C163.5 73.0312 162.484 73.1875 161.391 73.1875C160.036 73.1875 158.708 73.1615 157.406 73.1094C156.156 73.0573 154.854 73.0312 153.5 73.0312C152.458 73.0312 151.391 73.0833 150.297 73.1875C149.203 73.2396 147.927 73.4219 146.469 73.7344C144.854 74.099 143.396 74.5156 142.094 74.9844C140.792 75.4531 139.594 75.8958 138.5 76.3125C137.458 76.6771 136.469 76.9896 135.531 77.25C134.646 77.5104 133.786 77.6406 132.953 77.6406C130.87 77.6406 129.125 77.0677 127.719 75.9219C126.312 74.776 125.167 73.3698 124.281 71.7031C123.448 69.9844 122.823 68.1615 122.406 66.2344C122.042 64.2552 121.859 62.4323 121.859 60.7656C121.859 57.1719 122.328 53.7083 123.266 50.375C124.203 47.0417 125.479 43.9167 127.094 41C128.76 38.0312 130.688 35.349 132.875 32.9531C135.062 30.5573 137.406 28.5 139.906 26.7812C143.812 24.125 148.292 22.1458 153.344 20.8438C158.448 19.5417 164.307 18.7083 170.922 18.3438C174.203 18.1875 177.458 17.875 180.688 17.4062C183.917 16.9375 187.276 16.4688 190.766 16C194.307 15.4792 198.057 14.9844 202.016 14.5156C205.974 14.0469 210.375 13.7344 215.219 13.5781L215.609 13.9688ZM171.391 23.3438C167.016 23.3438 163.135 23.9167 159.75 25.0625C156.417 26.1562 153.5 27.6667 151 29.5938C148.5 31.4688 146.391 33.6302 144.672 36.0781C142.953 38.526 141.573 41.0521 140.531 43.6562C139.49 46.2604 138.734 48.8906 138.266 51.5469C137.797 54.151 137.562 56.5469 137.562 58.7344C137.562 61.7031 138.292 64.1771 139.75 66.1562C141.208 68.0833 143.344 69.0469 146.156 69.0469C148.552 69.0469 150.74 68.4479 152.719 67.25C154.75 66 156.286 63.9688 157.328 61.1562C159.88 54.2812 162.302 47.7969 164.594 41.7031C166.938 35.6094 169.203 29.4896 171.391 23.3438ZM214.516 20.4531C213.786 24.8802 213.057 29.3073 212.328 33.7344C211.599 38.1615 210.896 42.7448 210.219 47.4844C210.062 48.6302 209.906 49.6979 209.75 50.6875C209.646 51.625 209.594 52.5104 209.594 53.3438C209.594 54.9062 210.01 56.1302 210.844 57.0156C211.677 57.901 213.318 58.3438 215.766 58.3438C218.63 58.3438 221.026 57.5625 222.953 56C224.88 54.4375 226.417 52.4844 227.562 50.1406C228.708 47.7969 229.516 45.2448 229.984 42.4844C230.453 39.6719 230.688 37.0417 230.688 34.5938C230.688 32.5625 230.479 30.6615 230.062 28.8906C229.698 27.1198 229.047 25.5833 228.109 24.2812C227.172 22.9271 225.948 21.8854 224.438 21.1562C222.927 20.375 221.052 19.9844 218.812 19.9844C217.51 19.9844 216.078 20.1406 214.516 20.4531ZM274.359 31.4688C276.13 31.2604 278.109 31.0521 280.297 30.8438C282.484 30.5833 284.594 30.375 286.625 30.2188C288.708 30.0104 290.583 29.8542 292.25 29.75C293.917 29.5938 295.141 29.5156 295.922 29.5156C297.901 29.5156 299.438 30.0885 300.531 31.2344C301.625 32.3802 302.172 33.7865 302.172 35.4531C302.172 35.974 302.094 36.4948 301.938 37.0156C301.781 37.4844 301.599 37.9792 301.391 38.5C300.297 40.7396 299.047 43.2917 297.641 46.1562C296.286 48.9688 294.828 51.9375 293.266 55.0625C291.755 58.1354 290.219 61.2604 288.656 64.4375C287.094 67.6146 285.583 70.6615 284.125 73.5781C287.719 72.901 291.026 72.3802 294.047 72.0156C297.068 71.599 299.854 71.3906 302.406 71.3906C306 71.3906 308.943 72.224 311.234 73.8906C313.578 75.5052 314.75 78.0573 314.75 81.5469C314.75 84.6198 314.151 87.3802 312.953 89.8281C311.755 92.224 310.167 94.2552 308.188 95.9219C306.26 97.5365 304.021 98.7865 301.469 99.6719C298.917 100.505 296.312 100.922 293.656 100.922C292.302 100.922 291 100.896 289.75 100.844C288.552 100.792 287.224 100.714 285.766 100.609C284.516 100.87 282.927 101.13 281 101.391C279.073 101.651 277.094 101.885 275.062 102.094C273.083 102.302 271.208 102.458 269.438 102.562C267.719 102.719 266.417 102.797 265.531 102.797C262.719 102.797 260.74 102.224 259.594 101.078C258.448 99.9844 257.875 98.6042 257.875 96.9375C257.875 96.3125 258.083 95.2969 258.5 93.8906C259.333 91.9115 260.531 89.3073 262.094 86.0781C263.656 82.849 265.401 79.2812 267.328 75.375C269.255 71.4688 271.286 67.3802 273.422 63.1094C275.609 58.7865 277.719 54.5677 279.75 50.4531C280.375 49.2031 280.896 47.9531 281.312 46.7031C281.781 45.401 282.016 44.151 282.016 42.9531C282.016 41.1823 281.443 39.6979 280.297 38.5C279.203 37.3021 277.172 36.7031 274.203 36.7031C272.953 36.7031 271.391 36.7812 269.516 36.9375C267.641 37.0417 265.844 37.1719 264.125 37.3281C262.615 37.4323 261.547 37.25 260.922 36.7812C260.349 36.2604 260.062 35.3229 260.062 33.9688C260.062 33.3438 260.115 32.3802 260.219 31.0781C260.323 29.776 260.453 28.3177 260.609 26.7031C260.818 25.0885 261.026 23.4219 261.234 21.7031C261.443 19.9323 261.625 18.2917 261.781 16.7812C261.99 15.2188 262.146 13.8646 262.25 12.7188C262.354 11.5208 262.406 10.7135 262.406 10.2969C262.406 7.22396 260.531 5.55729 256.781 5.29688V2.40625C258.188 2.09375 259.646 1.80729 261.156 1.54688C262.667 1.28646 264.099 1.05208 265.453 0.84375C266.807 0.635417 268.031 0.479167 269.125 0.375C270.271 0.270833 271.156 0.21875 271.781 0.21875C273.76 0.21875 275.141 0.609375 275.922 1.39062C276.755 2.17188 277.172 3.42188 277.172 5.14062C277.172 6.02604 277.068 7.48438 276.859 9.51562C276.651 11.5469 276.391 13.8125 276.078 16.3125C275.766 18.8125 275.453 21.4167 275.141 24.125C274.828 26.7812 274.568 29.2292 274.359 31.4688ZM274.984 92.875C274.828 93.2917 274.75 93.6042 274.75 93.8125C274.75 94.5417 275.141 95.1146 275.922 95.5312C276.755 95.8958 277.745 96.1823 278.891 96.3906C280.036 96.5469 281.208 96.651 282.406 96.7031C283.656 96.7031 284.672 96.7031 285.453 96.7031C287.484 96.7031 289.385 96.4427 291.156 95.9219C292.979 95.401 294.542 94.5938 295.844 93.5C297.198 92.4062 298.24 91.026 298.969 89.3594C299.75 87.6406 300.141 85.6094 300.141 83.2656C300.141 78.8906 297.641 76.7031 292.641 76.7031C291.286 76.7031 289.672 76.8333 287.797 77.0938C285.922 77.3021 283.969 77.5885 281.938 77.9531L274.984 92.875Z" fill="#A435F0"/>
</svg>
