<svg width="32" height="32" viewBox="0 0 32 32" fill="none" xmlns="http://www.w3.org/2000/svg">
<path d="M26.8931 11.4041L26.8933 11.404C27.1765 11.1154 27.6322 11.1153 27.9158 11.404L30.6645 14.2031C31.6701 15.2271 31.6701 16.8979 30.6645 17.9219L27.9158 20.721C27.7728 20.8665 27.5885 20.9375 27.4044 20.9375C27.2205 20.9375 27.0362 20.8666 26.8932 20.721L26.8931 20.7209C26.6047 20.4274 26.6047 19.9476 26.8931 19.6541L26.8932 19.654L28.8484 17.6628L29.6833 16.8125H28.4916H13.7527C13.3593 16.8125 13.0251 16.4854 13.0251 16.0625C13.0251 15.6396 13.3593 15.3125 13.7527 15.3125H28.4916H29.6833L28.8484 14.4622L26.8932 12.471L26.8931 12.4709C26.6047 12.1774 26.6047 11.6976 26.8931 11.4041ZM22.1522 24.5V27C22.1522 29.4895 20.165 31.5 17.7421 31.5H5.40547C2.98261 31.5 0.995361 29.4895 0.995361 27V5C0.995361 2.51047 2.98261 0.5 5.40547 0.5H17.7421C20.165 0.5 22.1522 2.51047 22.1522 5V7.5C22.1522 7.92288 21.8181 8.25 21.4247 8.25C21.0313 8.25 20.6972 7.92288 20.6972 7.5V5C20.6972 3.35403 19.3804 2 17.7421 2H5.40547C3.76718 2 2.45042 3.35403 2.45042 5V27C2.45042 28.646 3.76718 30 5.40547 30H17.7421C19.3804 30 20.6972 28.646 20.6972 27V24.5C20.6972 24.0771 21.0313 23.75 21.4247 23.75C21.8181 23.75 22.1522 24.0771 22.1522 24.5Z" fill="black" stroke="black"/>
</svg>
