<svg width="89" height="89" viewBox="0 0 89 89" fill="none" xmlns="http://www.w3.org/2000/svg">
<rect width="89" height="89" rx="6" fill="#F3F6F9"/>
<g clip-path="url(#clip0_142_5452)">
<path d="M68.5342 84.8603L66.9804 72.4291C66.7458 70.5528 65.4547 68.9778 63.6609 68.3798L57.6692 66.3825C56.8464 66.1082 55.9438 66.2829 55.3093 66.8235L53.5443 66.2352C52.5419 65.901 51.8656 64.9628 51.8656 63.906V59.9468L57.1536 57.7434C59.8983 56.6001 61.6861 53.9183 61.6861 50.9447V49.7172C63.7201 49.7172 65.3689 48.0684 65.3689 46.0344C65.3689 45.1169 65.0327 44.2785 64.4777 43.6337C65.5197 39.8408 68.4486 27.843 65.3689 22.7103L66.5965 17.8C66.5965 17.8 53.7068 18.1069 46.9551 20.2552L49.4103 17.8C49.4103 17.8 32.1474 17.8 28.5425 23.9368L28.5414 23.9379C28.5414 23.9379 22.4035 23.8868 22.4035 31.3034C22.4035 34.0179 23.9175 40.796 24.5675 43.5815C23.9855 44.2328 23.6311 45.0921 23.6311 46.0344C23.6311 48.0684 25.2799 49.7172 27.3138 49.7172V50.9447C27.3138 53.9181 29.1016 56.5999 31.8463 57.7437L37.1345 59.9471V63.9062C37.1345 64.963 36.4582 65.9012 35.4558 66.2354L33.6908 66.8237C33.0563 66.2831 32.1537 66.1083 31.3309 66.3827L25.3392 68.38C23.5453 68.9779 22.2542 70.5529 22.0197 72.4293L20.4659 84.8604C20.1911 87.0584 21.9049 88.9998 24.1201 88.9998H24.1546H64.8453H64.8798C67.095 88.9998 68.809 87.0584 68.5342 84.8603Z" fill="#FFD7A3"/>
<path d="M51.8655 59.947L37.1345 59.9471V63.9062C37.1345 64.7899 36.6456 65.5682 35.9043 66.0022C46.1997 67.8041 51.8655 59.947 51.8655 59.947Z" fill="#FDC88E"/>
<path d="M24.8587 44.8068C24.8587 44.8068 22.4036 34.76 22.4036 31.3034C22.4036 23.8868 28.5415 23.9379 28.5415 23.9379L28.5426 23.9368C32.1475 17.8 49.4104 17.8 49.4104 17.8L46.9552 20.2552C53.7069 18.1069 66.5966 17.8 66.5966 17.8L65.369 22.7103C69.0517 28.8482 64.1414 44.8068 64.1414 44.8068H24.8587Z" fill="#734A3E"/>
<path d="M49.4104 17.8C49.4104 17.8 32.1475 17.8 28.5426 23.9368L28.5415 23.9379C28.5415 23.9379 22.4036 23.8868 22.4036 31.3034C22.4036 34.76 24.8587 44.8068 24.8587 44.8068C24.8587 44.8068 50.3823 33.4006 66.5966 17.8C66.5966 17.8 53.707 18.1069 46.9552 20.2552L49.4104 17.8Z" fill="#623F33"/>
<path d="M61.6862 42.3518V39.8966C61.6862 36.5068 58.9381 33.7587 55.5483 33.7587H33.4518C30.062 33.7587 27.3139 36.5068 27.3139 39.8966V42.3518C25.2799 42.3518 23.6311 44.0005 23.6311 46.0345C23.6311 48.0685 25.2799 49.7173 27.3139 49.7173V50.9448C27.3139 53.9182 29.1017 56.6 31.8464 57.7438L39.7783 61.0488C41.2744 61.6722 42.8792 61.9931 44.4999 61.9931C46.1206 61.9931 47.7252 61.6721 49.2213 61.0488L57.1536 57.7437C59.8984 56.6002 61.6862 53.9184 61.6862 50.9448V49.7173C63.7201 49.7173 65.3689 48.0685 65.3689 46.0345C65.3689 44.0005 63.7201 42.3518 61.6862 42.3518Z" fill="#FFE1B2"/>
<path d="M35.9069 47.262C35.2317 47.262 34.6793 46.7096 34.6793 46.0344V44.8068C34.6793 44.1316 35.2317 43.5792 35.9069 43.5792C36.5821 43.5792 37.1345 44.1316 37.1345 44.8068V46.0344C37.1345 46.7096 36.5821 47.262 35.9069 47.262Z" fill="#623F33"/>
<path d="M53.0931 47.262C52.4179 47.262 51.8655 46.7096 51.8655 46.0344V44.8068C51.8655 44.1316 52.4179 43.5792 53.0931 43.5792C53.7682 43.5792 54.3206 44.1316 54.3206 44.8068V46.0344C54.3206 46.7096 53.7682 47.262 53.0931 47.262Z" fill="#623F33"/>
<path d="M44.5 55.8888C42.3176 55.8888 40.2761 55.3518 38.8992 54.415C38.3388 54.0338 38.193 53.2701 38.575 52.7097C38.9555 52.1499 39.7198 52.0041 40.2802 52.3855C41.2453 53.0418 42.8229 53.4338 44.5 53.4338C46.1772 53.4338 47.7548 53.0418 48.7199 52.3855C49.2815 52.0031 50.044 52.1493 50.4251 52.7097C50.8069 53.2701 50.6613 54.0338 50.1009 54.415C48.7242 55.3518 46.6825 55.8888 44.5 55.8888Z" fill="#E4B07B"/>
<path d="M68.5342 84.8603L66.9804 72.4291C66.7459 70.5528 65.4547 68.9778 63.6609 68.3798L57.6692 66.3825C56.6257 66.0347 55.4519 66.4062 54.8625 67.3348C52.6863 70.7635 48.8616 73.0411 44.5 73.0411C40.1384 73.0411 36.3137 70.7633 34.1376 67.3348C33.5482 66.4062 32.3744 66.0347 31.3309 66.3825L25.3392 68.3798C23.5453 68.9778 22.2542 70.5528 22.0197 72.4291L20.4659 84.8603C20.1911 87.0582 21.9051 88.9998 24.1202 88.9998H64.88C67.095 88.9998 68.809 87.0582 68.5342 84.8603Z" fill="#00BEA4"/>
<path d="M23.043 69.9981C22.498 70.6882 22.1331 71.5218 22.0197 72.4292L20.4659 84.8603C20.1911 87.0585 21.9051 88.9999 24.1202 88.9999H30.9966V81.0103C30.9966 79.8292 30.5709 78.6879 29.7977 77.7951L23.043 69.9981Z" fill="#00AB9A"/>
<path d="M65.9569 69.9981C66.502 70.6882 66.8669 71.5218 66.9803 72.4292L68.5341 84.8603C68.8089 87.0585 67.0949 88.9999 64.8797 88.9999H58.0034V81.0103C58.0034 79.8292 58.4291 78.6879 59.2023 77.7951L65.9569 69.9981Z" fill="#00AB9A"/>
<path d="M33.7581 55.1989C32.7634 54.1324 32.2243 52.7251 32.2243 51.2668V37.3552C36.1316 37.0622 48.4505 35.9969 55.5484 33.7587H33.4518C33.0292 33.7587 32.6199 33.8079 32.2242 33.8939V33.8823C29.4227 34.4512 27.3139 36.9272 27.3139 39.8966V42.3518C25.2799 42.3518 23.6311 44.0005 23.6311 46.0345C23.6311 48.0685 25.2799 49.7173 27.3139 49.7173V50.9448C27.3139 53.9184 29.1017 56.6002 31.8464 57.7438L39.7781 61.0488C40.1663 61.2105 40.5626 61.3498 40.9638 61.4706C37.4585 58.9062 35.1251 56.6645 33.7581 55.1989Z" fill="#FFD7A3"/>
</g>
<defs>
<clipPath id="clip0_142_5452">
<rect width="71.2" height="71.2" fill="white" transform="translate(8.90002 17.8)"/>
</clipPath>
</defs>
</svg>
