<svg width="89" height="89" viewBox="0 0 89 89" fill="none" xmlns="http://www.w3.org/2000/svg">
<rect width="89" height="89" rx="6" fill="#F3F6F9"/>
<g clip-path="url(#clip0_142_5602)">
<path d="M66.36 81.7789L66.1396 81.0241C66.0332 80.6595 65.678 80.436 65.3127 80.4825L65.0802 78.7386L64.5986 75.1265C64.5986 75.1264 64.5986 75.1262 64.5986 75.1261L64.5427 74.7065C64.2898 72.8088 63.1139 71.1604 61.1777 70.1924L58.9087 69.0578C58.5412 68.8742 58.2606 69.1105 57.9907 69.4107L53.0112 67.5786C52.0679 67.2641 51.4315 66.3813 51.4315 65.3868V61.6611L56.4076 59.5877C58.9901 58.5114 60.6725 55.9878 60.6725 53.1897V42.7931C60.6725 39.6031 58.0865 34.7069 54.8966 34.7069H34.1035C30.9135 34.7069 28.3277 39.6031 28.3277 42.7931V53.1897C28.3277 55.9876 30.01 58.5113 32.5928 59.5876L37.569 61.661V65.3866C37.569 66.381 36.9327 67.2639 35.9893 67.5784L31.0098 69.4104C30.7399 69.1103 30.4594 68.8737 30.0919 69.0575L27.8228 70.1921C25.8865 71.1602 24.7108 72.8087 24.4578 74.7062L24.4019 75.1258C24.4019 75.126 24.4019 75.1261 24.4019 75.1262L23.9204 78.7383L23.6879 80.4822C23.3226 80.4357 22.9675 80.6592 22.8609 81.0238L22.6406 81.7786C22.5226 82.1828 22.7547 82.6058 23.1588 82.7238L23.3805 82.7885L23.0755 85.0763C22.798 87.154 24.4141 89 26.51 89H62.4901C64.5861 89 66.2023 87.154 65.9252 85.0765L65.6202 82.7887L65.8419 82.724C66.2459 82.6063 66.4779 82.183 66.36 81.7789Z" fill="#F6B47B"/>
<path d="M37.5691 61.4203V65.3867C37.5691 66.2088 37.1334 66.9537 36.4497 67.3651C45.6556 68.9557 50.9173 62.051 51.3954 61.4203H37.5691Z" fill="#E2A071"/>
<path d="M56.4074 59.5876L48.943 62.6977C47.5351 63.2843 46.0251 63.5864 44.5 63.5864C42.9749 63.5864 41.4648 63.2843 40.0569 62.6977L32.5929 59.5877C30.0101 58.5114 28.3278 55.9878 28.3278 53.1897V42.7931C28.3278 39.6033 30.9138 34.7069 34.1036 34.7069H54.8967C58.0866 34.7069 60.6726 39.6033 60.6726 42.7931V53.1897C60.6726 55.9878 58.9902 58.5114 56.4074 59.5876Z" fill="#FDC88E"/>
<path d="M36.414 49.7241C35.7786 49.7241 35.2588 49.2043 35.2588 48.569V47.4138C35.2588 46.7784 35.7786 46.2586 36.414 46.2586C37.0493 46.2586 37.5691 46.7784 37.5691 47.4138V48.569C37.5691 49.2043 37.0493 49.7241 36.414 49.7241Z" fill="#623F33"/>
<path d="M52.5863 49.7241C51.951 49.7241 51.4312 49.2043 51.4312 48.569V47.4138C51.4312 46.7784 51.951 46.2586 52.5863 46.2586C53.2217 46.2586 53.7415 46.7784 53.7415 47.4138V48.569C53.7415 49.2043 53.2217 49.7241 52.5863 49.7241Z" fill="#623F33"/>
<path d="M44.5002 57.8418C42.4464 57.8418 40.5254 57.3364 39.2297 56.4549C38.7023 56.0962 38.5652 55.3776 38.9246 54.8502C39.2827 54.3235 40.0019 54.1863 40.5293 54.5451C41.4374 55.1627 42.9219 55.5316 44.5002 55.5316C46.0784 55.5316 47.5629 55.1627 48.4711 54.5451C48.9995 54.1853 49.7171 54.3229 50.0757 54.8502C50.435 55.3776 50.298 56.0962 49.7706 56.4549C48.4751 57.3364 46.5539 57.8418 44.5002 57.8418Z" fill="#E2A071"/>
<path d="M28.3278 44.1131V53.1899C28.3278 55.9879 30.0101 58.5116 32.5929 59.5878L40.0568 62.6978C40.4221 62.85 40.7949 62.9811 41.1725 63.0948C37.874 60.6818 35.6783 58.5723 34.3917 57.193C33.4557 56.1895 32.9484 54.8652 32.9484 53.4928V47.0367C36.2551 45.8826 44.8099 42.0916 44.9286 35.8625C44.9398 35.2738 44.9309 34.7489 44.9049 34.2809C39.4682 41.7123 31.9364 43.661 28.3278 44.1131Z" fill="#F6B47B"/>
<path d="M64.4991 60.4228C64.4991 57.9751 62.4811 56.9408 62.4811 54.8564C62.4811 52.7721 65.1031 52.2114 65.1031 49.0866C65.1031 46.9978 64.1723 45.3761 63.5549 43.8816C67.0751 28.6239 53.8698 22 50.276 22C46.5217 22 44.5001 23.1552 44.5001 23.1552C44.5001 23.1552 42.4786 22 38.7243 22C35.1305 22 21.9252 28.6239 25.4454 43.8814C24.828 45.3759 23.8972 46.9976 23.8972 49.0865C23.8972 52.2114 26.5192 52.7719 26.5192 54.8563C26.5192 56.9406 24.5012 57.9751 24.5012 60.4226C24.5012 62.8703 26.4448 64.0555 27.0763 65.897C27.365 66.7393 27.0282 69.2658 27.0282 69.2658C27.0282 69.2658 29.0858 65.8707 28.0028 62.7519C26.9199 59.6331 28.1761 59.2975 29.158 57.9355C30.6381 55.8827 30.4374 53.5794 29.2286 51.3409C28.448 49.8953 28.6535 48.4988 29.7476 47.5266C30.8991 46.5034 31.1692 44.7375 31.1708 44.7263C36.6396 43.1252 44.5001 39.9177 44.5001 34.7069C44.5001 39.9177 52.3607 43.1252 57.8294 44.7263C57.8311 44.7374 58.1011 46.5034 59.2526 47.5266C60.3467 48.4988 60.5521 49.8953 59.7715 51.3409C58.5628 53.5794 58.3621 55.8828 59.8421 57.9355C60.824 59.2975 62.0803 59.6331 60.9973 62.7519C59.9143 65.8706 61.972 69.2658 61.972 69.2658C61.972 69.2658 61.6351 66.7391 61.9239 65.897C62.5555 64.0555 64.4991 62.8703 64.4991 60.4228Z" fill="#6E4439"/>
<path d="M64.5426 74.7067C64.2896 72.809 63.1138 71.1606 61.1776 70.1925L58.9085 69.058C58.4891 68.8484 58.183 69.186 57.8767 69.541C51.7202 76.6787 44.5005 79.7595 44.5005 79.7595H44.5004H44.5002C44.5002 79.7595 37.2805 76.6787 31.1241 69.541C30.8178 69.186 30.5115 68.8484 30.0922 69.058L27.8231 70.1925C25.8868 71.1607 24.7111 72.8091 24.4581 74.7067L23.5178 81.7584C26.5692 82.8092 31.7932 84.3796 31.7932 84.3796V89.0003H57.207V84.3796C57.207 84.3796 62.431 82.8092 65.4828 81.7584L64.5426 74.7067Z" fill="#57B9DD"/>
<path d="M31.7645 84.0264C31.6939 82.6528 31.2353 81.3255 30.4069 80.2208L24.9838 72.9901C24.722 73.5292 24.5381 74.1031 24.4575 74.7065L23.5419 81.5741L31.7645 84.0264Z" fill="#43A0C5"/>
<path d="M22.6402 81.7791C22.5223 82.1833 22.7543 82.6065 23.1583 82.7243L31.7932 85.2431V84.3795C31.7932 83.8338 31.7075 83.2993 31.5823 82.7748L23.8057 80.5064C23.4016 80.3886 22.9786 80.6205 22.8607 81.0245L22.6402 81.7791Z" fill="#258CAC"/>
<path d="M57.2356 84.0264C57.3062 82.6528 57.7648 81.3255 58.5932 80.2208L64.0163 72.9901C64.2781 73.5292 64.4621 74.1031 64.5426 74.7065L65.4583 81.5741L57.2356 84.0264Z" fill="#43A0C5"/>
<path d="M66.3601 81.7791C66.478 82.1833 66.246 82.6065 65.842 82.7243L57.207 85.2431V84.3795C57.207 83.8338 57.2928 83.2993 57.418 82.7748L65.1946 80.5064C65.5987 80.3886 66.0217 80.6205 66.1396 81.0245L66.3601 81.7791Z" fill="#258CAC"/>
<path d="M38.7243 22C35.1305 22 21.9253 28.6239 25.4454 43.8814C24.828 45.3759 23.8972 46.9976 23.8972 49.0865C23.8972 52.2114 26.5192 52.7719 26.5192 54.8563C26.5192 56.9406 24.5012 57.9751 24.5012 60.4226C24.5012 62.8703 26.4448 64.0555 27.0762 65.897C27.365 66.7393 27.0282 69.2658 27.0282 69.2658C27.0282 69.2658 29.0858 65.8707 28.0028 62.7519C26.9199 59.6331 28.1761 59.2975 29.158 57.9355C30.6381 55.8827 30.4374 53.5794 29.2286 51.3409C28.448 49.8953 28.6535 48.4988 29.7476 47.5266C30.8991 46.5034 31.1692 44.7375 31.1707 44.7263L31.1696 44.7261C31.17 44.726 31.1703 44.7259 31.1707 44.7259C27.9074 29.7062 40.9179 23.1672 44.5001 23.1558V23.1552C44.5001 23.1552 42.4786 22 38.7243 22Z" fill="#5E342E"/>
</g>
<defs>
<clipPath id="clip0_142_5602">
<rect width="67" height="67" fill="white" transform="translate(11.0001 22)"/>
</clipPath>
</defs>
</svg>
