<svg width="89" height="89" viewBox="0 0 89 89" fill="none" xmlns="http://www.w3.org/2000/svg">
<rect width="89" height="89" rx="6" fill="#F3F6F9"/>
<path d="M73.8793 42.4828C73.8793 42.4828 68.8297 43.0948 66.5344 35.1379C63.3676 24.1592 56.3311 18 44.5 18C32.6688 18 25.6323 24.1592 22.4655 35.1379C20.1702 43.0948 15.1207 42.4828 15.1207 42.4828C15.1207 42.4828 12.3663 48.6034 18.7931 52.2759H16.3448C16.3448 52.2759 17.833 59.7084 25.3274 60.7187C26.2799 62.8709 29.2596 65.7414 38.3793 65.7414H44.5H50.6207C59.7403 65.7414 62.72 62.8708 63.6726 60.7187C71.1669 59.7084 72.6551 52.2759 72.6551 52.2759H70.2069C76.6336 48.6034 73.8793 42.4828 73.8793 42.4828Z" fill="#9D6E48"/>
<path d="M56.7413 42.4828C41.5926 34.8319 42.5107 21.3664 44.5 18C32.669 18 25.6323 24.1592 22.4655 35.1379C20.1702 43.0948 15.1207 42.4828 15.1207 42.4828C15.1207 42.4828 12.3663 48.6034 18.7931 52.2759H16.3448C16.3448 52.2759 17.833 59.7084 25.3274 60.7187C26.2799 62.8709 29.2596 65.7414 38.3793 65.7414L56.7413 42.4828Z" fill="#8D5F3D"/>
<path d="M67.2042 84.8424L65.7983 74.2983C65.4981 72.0471 63.9762 70.1472 61.8448 69.363L53.5188 66.2996C52.5192 65.9663 51.8448 65.0308 51.8448 63.977V60.0288L57.118 57.8316C59.8551 56.6912 61.6379 54.0169 61.6379 51.0517V49.8276C63.6662 49.8276 65.3103 48.1834 65.3103 46.1552C65.3103 44.127 63.6662 42.4828 61.6379 42.4828V40.0345C61.6379 36.6541 58.8975 33.9138 55.5172 33.9138H33.4828C30.1023 33.9138 27.3621 36.6542 27.3621 40.0345V42.4828C25.3338 42.4828 23.6896 44.127 23.6896 46.1552C23.6896 48.1834 25.3338 49.8276 27.3621 49.8276V51.0517C27.3621 54.0169 29.1449 56.6912 31.8819 57.8316L37.1552 60.0288V63.9768C37.1552 65.0306 36.4808 65.9662 35.4812 66.2995L27.1552 69.3629C25.0238 70.1471 23.5019 72.0469 23.2017 74.2981L21.7958 84.8422C21.5023 87.0439 23.2148 89 25.4359 89H44.5H63.5641C65.7852 89 67.4979 87.0439 67.2042 84.8424Z" fill="#F6B47B"/>
<path d="M37.1552 60.0797V63.9767C37.1552 64.8478 36.6935 65.6373 35.969 66.0732C45.7243 67.7587 51.3002 60.7481 51.8069 60.0795H37.1552V60.0797Z" fill="#E2A071"/>
<path d="M61.6377 42.4828V40.0345C61.6377 36.6541 58.8973 33.9138 55.517 33.9138H33.4826C30.1021 33.9138 27.3619 36.6542 27.3619 40.0345V42.4828C25.3336 42.4828 23.6895 44.127 23.6895 46.1552C23.6895 48.1834 25.3336 49.8276 27.3619 49.8276V51.0517C27.3619 54.0169 29.1447 56.6912 31.8817 57.8316L39.7913 61.1273C41.2832 61.749 42.8835 62.069 44.4996 62.069C46.1158 62.069 47.7159 61.749 49.2078 61.1273L57.1179 57.8315C59.8549 56.6912 61.6377 54.0169 61.6377 51.0517V49.8276C63.666 49.8276 65.3101 48.1834 65.3101 46.1552C65.3101 44.127 63.666 42.4828 61.6377 42.4828Z" fill="#FDC88E"/>
<path d="M35.9309 47.3793C35.2576 47.3793 34.7068 46.8285 34.7068 46.1552V44.931C34.7068 44.2578 35.2576 43.7069 35.9309 43.7069C36.6042 43.7069 37.1551 44.2578 37.1551 44.931V46.1552C37.1551 46.8285 36.6042 47.3793 35.9309 47.3793Z" fill="#623F33"/>
<path d="M44.5 55.9817C42.3237 55.9817 40.2879 55.4461 38.9149 54.5119C38.3561 54.1318 38.2107 53.3703 38.5916 52.8115C38.9711 52.2533 39.7332 52.1079 40.292 52.4881C41.2544 53.1426 42.8275 53.5335 44.5 53.5335C46.1725 53.5335 47.7457 53.1426 48.708 52.4881C49.268 52.1068 50.0284 52.2526 50.4085 52.8115C50.7892 53.3703 50.644 54.1318 50.0851 54.5119C48.7123 55.4461 46.6764 55.9817 44.5 55.9817Z" fill="#E2A071"/>
<path d="M58.5526 67.9847L54.1477 75.0323C53.4765 76.106 52.2997 76.7584 51.0335 76.7584H37.9664C36.7002 76.7584 35.5233 76.106 34.8522 75.0323L30.4474 67.9847C30.0937 67.4186 29.3518 67.2404 28.7796 67.5838L24.7586 69.9964C24.1714 70.3486 23.9874 71.1142 24.3503 71.6949L29.8103 80.4308H59.1896L64.6496 71.6947C65.0125 71.114 64.8284 70.3486 64.2413 69.9962L60.2203 67.5836C59.6482 67.2404 58.9062 67.4188 58.5526 67.9847Z" fill="#F23F44"/>
<path d="M59.1896 80.431H29.8103V89H59.1896V80.431Z" fill="#FF4F4F"/>
<path d="M33.788 55.2938C32.7961 54.2304 32.2586 52.8271 32.2586 51.3728V38.3874C36.5114 41.3679 42.3944 43.6987 53.375 44.319L52.3038 40.6466C52.3038 40.6466 44.6898 36.3661 40.9804 33.9138H33.4826C33.063 33.9138 32.6541 33.9579 32.2584 34.0384V34.0372C32.1642 34.0563 32.071 34.078 31.9784 34.1014C31.9698 34.1036 31.961 34.1051 31.9524 34.1072C31.9502 34.1078 31.9484 34.1095 31.9461 34.1101C29.3098 34.792 27.3619 37.185 27.3619 40.0345V42.4828C25.3336 42.4828 23.6895 44.127 23.6895 46.1552C23.6895 48.1834 25.3336 49.8276 27.3619 49.8276V51.0517C27.3619 54.0169 29.1447 56.6912 31.8817 57.8316L39.7912 61.1273C40.1783 61.2886 40.5734 61.4275 40.9735 61.548C37.478 58.9907 35.1512 56.7555 33.788 55.2938Z" fill="#F6B47B"/>
<path d="M53.0689 47.3793C52.3956 47.3793 51.8447 46.8285 51.8447 46.1552V44.931C51.8447 44.2578 52.3956 43.7069 53.0689 43.7069C53.7421 43.7069 54.293 44.2578 54.293 44.931V46.1552C54.293 46.8285 53.7421 47.3793 53.0689 47.3793Z" fill="#623F33"/>
<path d="M56.7413 42.4827L55.5172 40.0345C55.5172 40.0345 59.3905 42.4781 61.7909 42.4781V33.3017H32.894C37.5194 37.7302 43.2862 42.4827 56.7413 42.4827Z" fill="#9D6E48"/>
<path d="M56.7412 42.4827C51.5978 39.8851 48.3083 36.6171 46.2822 33.3017H32.8938C37.5194 37.7302 43.2861 42.4827 56.7412 42.4827Z" fill="#8D5F3D"/>
</svg>
