<svg width="462" height="394" viewBox="0 0 462 394" fill="none" xmlns="http://www.w3.org/2000/svg">
<path fill-rule="evenodd" clip-rule="evenodd" d="M251.969 0.0909496C288.161 -1.09549 323.244 9.3935 353.805 27.5918C385.954 46.7356 411.269 73.3182 428.436 105.172C448.143 141.737 470.932 182.459 458.423 221.708C445.848 261.165 397.739 277.091 364.914 304.483C327.168 335.983 302.521 393.509 251.969 393.997C201.481 394.484 179.111 333.22 137.321 306.679C93.2859 278.712 14.3901 283.437 1.69391 235.044C-11.2855 185.572 53.5828 149.565 85.2308 108.133C106.216 80.6599 125.524 53.3214 155.184 34.1029C184.232 15.2803 216.669 1.24816 251.969 0.0909496Z" fill="#212844" fill-opacity="0.35"/>
</svg>
