<svg width="32" height="39" viewBox="0 0 32 39" fill="none" xmlns="http://www.w3.org/2000/svg">
<path d="M7.28003 10.5C7.28003 4.91325 11.1768 0.5 15.8142 0.5C20.4517 0.5 24.3484 4.91325 24.3484 10.5C24.3484 16.0868 20.4517 20.5 15.8142 20.5C11.1768 20.5 7.28003 16.0868 7.28003 10.5ZM8.28763 10.5C8.28763 15.2061 11.5957 19.1667 15.8142 19.1667C20.0328 19.1667 23.3408 15.2061 23.3408 10.5C23.3408 5.79395 20.0328 1.83333 15.8142 1.83333C11.5957 1.83333 8.28763 5.79395 8.28763 10.5Z" fill="#A435F0" stroke="#A435F0"/>
<path d="M2.08439 36.6961L2.04139 37.2358H2.58281H29.0457H29.5871L29.5441 36.6961C29.0158 30.0663 24.0207 24.7642 17.8568 24.7642H13.7717C7.60775 24.7642 2.61264 30.0663 2.08439 36.6961ZM4.75224 27.7242L4.37846 27.3921L4.75224 27.7242C7.18123 24.9902 10.3846 23.5 13.7717 23.5H17.8568C21.244 23.5 24.4472 24.9902 26.8762 27.7242L27.25 27.3921L26.8762 27.7242C29.2951 30.4467 30.6331 34.0473 30.6331 37.8679C30.6331 38.2667 30.3525 38.5 30.1119 38.5H1.51662C1.27596 38.5 0.995361 38.2667 0.995361 37.8679C0.995361 34.0473 2.33335 30.4467 4.75224 27.7242Z" fill="#A435F0" stroke="#A435F0"/>
</svg>
